<svg xmlns="http://www.w3.org/2000/svg" viewBox="0 0 64 64" width="64" height="64" role="img" aria-label="ReMIX">
  <title>ReMIX</title>
  <!-- Five bars, one per pipeline stage, in the stage palette. -->
  <g>
    <rect x="8"  y="44" width="6" height="12" rx="3" fill="#E23B34"/>
    <rect x="17" y="36" width="6" height="20" rx="3" fill="#2E6FD6"/>
    <rect x="26" y="30" width="6" height="26" rx="3" fill="#1FA347"/>
    <rect x="35" y="38" width="6" height="18" rx="3" fill="#FB8B24"/>
    <rect x="44" y="43" width="6" height="13" rx="3" fill="#7B3FF2"/>
  </g>
  <!-- The instruction: a bubble whose arrow loops back to re-shape the waveform. -->
  <g fill="none" stroke="#141414" stroke-width="2.4" stroke-linecap="round" stroke-linejoin="round">
    <path d="M46 4h12a4 4 0 0 1 4 4v6a4 4 0 0 1-4 4H50l-4 4v-4a4 4 0 0 1-4-4V8a4 4 0 0 1 4-4z" fill="#FFFFFF"/>
    <path d="M44 20C31 23 16 27 11 36" stroke-width="2.4"/>
  </g>
  <path d="M11 40.5 7.4 34.2h7.2z" fill="#141414"/>
  <g stroke="#141414" stroke-width="1.8" stroke-linecap="round">
    <path d="M48 9h8"/>
    <path d="M48 13h5"/>
  </g>
</svg>
